<svg height="40" viewBox="0 0 40 40" width="40" xmlns="http://www.w3.org/2000/svg"><g fill="#B1C903"><path d="m27 9a.5.5 0 0 0 -.5-.5h-7a.5.5 0 0 0 0 1h7a.5.5 0 0 0 .5-.5z"/><path d="m13.5 20.5h7.479a.5.5 0 0 0 0-1h-7.479a.5.5 0 0 0 0 1z"/><path d="m25.979 20.5a.5.5 0 0 0 0-1c-2.292 0-3.54-2.359-4.86-4.858-1.519-2.879-3.245-6.142-6.956-6.142h-.663a.5.5 0 0 0 0 1h.663c3.108 0 4.615 2.852 6.072 5.609 1.037 1.963 2.1 3.972 3.76 4.884-1.624.876-2.627 2.794-3.6 4.667-1.436 2.746-2.789 5.34-5.895 5.34h-1a.5.5 0 0 0 0 1h1c3.713 0 5.341-3.122 6.777-5.877 1.294-2.48 2.411-4.623 4.702-4.623z"/><path d="m9.5 33a2.5 2.5 0 1 0 -2.5-2.5 2.5 2.5 0 0 0 2.5 2.5zm0-4a1.5 1.5 0 1 1 -1.5 1.5 1.5 1.5 0 0 1 1.5-1.5z"/><path d="m9.5 22.5a2.5 2.5 0 1 0 -2.5-2.5 2.5 2.5 0 0 0 2.5 2.5zm0-4a1.5 1.5 0 1 1 -1.5 1.5 1.5 1.5 0 0 1 1.5-1.5z"/><path d="m30.5 17.5a2.5 2.5 0 1 0 2.5 2.5 2.5 2.5 0 0 0 -2.5-2.5zm0 4a1.5 1.5 0 1 1 1.5-1.5 1.5 1.5 0 0 1 -1.5 1.5z"/><path d="m7 9.5a2.5 2.5 0 1 0 2.5-2.5 2.5 2.5 0 0 0 -2.5 2.5zm2.5-1.5a1.5 1.5 0 1 1 -1.5 1.5 1.5 1.5 0 0 1 1.5-1.5z"/><path d="m30.5 7a2.5 2.5 0 1 0 2.5 2.5 2.5 2.5 0 0 0 -2.5-2.5zm0 4a1.5 1.5 0 1 1 1.5-1.5 1.5 1.5 0 0 1 -1.5 1.5z"/></g></svg>