<svg xmlns="http://www.w3.org/2000/svg" viewBox="0 0 40 40" height="40" width="40"><path fill="#B1C903" d="M11.346,18.131a2.207,2.207,0,1,0,2.21,2.207A2.211,2.211,0,0,0,11.346,18.131Zm0,3.414a1.207,1.207,0,1,1,1.21-1.207A1.21,1.21,0,0,1,11.346,21.545Z"/><path fill="#B1C903" d="M34,19.937a13.95,13.95,0,0,0-.452-3.416.5.5,0,0,0-.053-.2A13.967,13.967,0,0,0,17.262,6.273h0a14.031,14.031,0,0,0-9.768,7.471.489.489,0,0,0-.092.146.472.472,0,0,0-.01.064A13.97,13.97,0,0,0,27.278,31.937c.009,0,.019,0,.028-.006a.5.5,0,0,0,.164-.111,14.044,14.044,0,0,0,5.962-7.9c0-.008.011-.013.014-.022a.413.413,0,0,0,.018-.1A13.921,13.921,0,0,0,34,20c0-.013,0-.025,0-.037l0-.01Zm-1.025-.484H28.115a1.208,1.208,0,0,1,0-2.416h4.531A12.9,12.9,0,0,1,32.972,19.453ZM17.268,7.294a2.185,2.185,0,0,0,1.434.547,1.212,1.212,0,0,1,1.213,1.208,2.208,2.208,0,0,0,2.209,2.2,1.21,1.21,0,0,1,1.208,1.209v3.416a1.209,1.209,0,0,1-1.208,1.208H18.7a1.21,1.21,0,0,1-1.209-1.208V12.461a2.208,2.208,0,1,0-4.416,0,1.213,1.213,0,0,1-1.214,1.208H8.656A13.038,13.038,0,0,1,17.268,7.294ZM7,20a12.912,12.912,0,0,1,1.168-5.356,2.174,2.174,0,0,0,.279.025h3.416a2.214,2.214,0,0,0,2.214-2.208,1.208,1.208,0,1,1,2.416,0v3.416A2.211,2.211,0,0,0,18.7,18.085h3.422a2.21,2.21,0,0,0,2.208-2.208V12.461a2.211,2.211,0,0,0-2.208-2.209,1.207,1.207,0,0,1-1.209-1.2,2.208,2.208,0,0,0-1.341-2.027c.143,0,.282-.022.426-.022a13.019,13.019,0,0,1,12.377,9.037H28.115a2.208,2.208,0,0,0,0,4.416h4.862a12.969,12.969,0,0,1-.372,2.67c-.074-.007-.146-.019-.221-.019H22.124A1.21,1.21,0,0,1,20.915,21.9a2.211,2.211,0,0,0-4.422,0A1.21,1.21,0,0,1,15.285,23.1a2.208,2.208,0,0,0,0,4.416,1.207,1.207,0,0,1,1.208,1.2A2.211,2.211,0,0,0,18.7,30.931h6.843a1.194,1.194,0,0,1,.857.37A12.981,12.981,0,0,1,7,20ZM27.269,30.773a2.187,2.187,0,0,0-1.724-.842H18.7a1.21,1.21,0,0,1-1.209-1.208,2.208,2.208,0,0,0-2.208-2.2,1.208,1.208,0,0,1,0-2.416A2.211,2.211,0,0,0,17.493,21.9a1.211,1.211,0,0,1,2.422,0A2.212,2.212,0,0,0,22.124,24.1h10.2A13.061,13.061,0,0,1,27.269,30.773Z"/></svg>
